<?xml version="1.0" encoding="UTF-8"?>
<svg id="Layer_1" data-name="Layer 1" xmlns="http://www.w3.org/2000/svg" viewBox="0 0 702.85 343.05">
  <defs>
    <style>
      .cls-1 {
        fill: #30997d;
      }
    </style>
  </defs>
  <g id="RHhDp6">
    <path class="cls-1" d="M228.3,202.33c-.63-49.2,11.44-95.41,35.76-137.75C300.1,1.84,339.65-17.92,408.18,17.43c10.67,5.5,53.6,35.43,57.81,44.54,5.03,10.87-27.48,103.87-29.11,122.3-34.69-37.51-99.37-98.66-154.85-69.62-45.05,23.58-12.02,62.54,11.46,87.68h409.36l-26.41,47.64H343.94c-.31,1.8,.87,3.3,2.53,4.6,12.44,9.72,80.97,39.54,94.75,39.54h210.71l-26.89,48.94H0l26.91-48.94h253.38l-37.11-44.13H51.38l26.41-47.64H228.3Z"/>
  </g>
</svg>