<svg width="15" height="15" viewBox="0 0 15 15" fill="none" xmlns="http://www.w3.org/2000/svg">
<path d="M6.32812 11.7188C6.45757 11.7188 6.5625 11.6138 6.5625 11.4844C6.5625 11.3549 6.45757 11.25 6.32812 11.25C6.19868 11.25 6.09375 11.3549 6.09375 11.4844C6.09375 11.6138 6.19868 11.7188 6.32812 11.7188Z" fill="#32A88D"/>
<path d="M7.27266 10.0852L6.5625 9.76875V10.8234C6.83437 10.9219 7.03125 11.1797 7.03125 11.4844C7.03125 11.8711 6.71484 12.1875 6.32812 12.1875C5.94141 12.1875 5.625 11.8711 5.625 11.4844C5.625 11.1797 5.82188 10.9219 6.09375 10.8234V9.56016L5.85938 9.45703V8.84531C6.04719 8.71387 6.20549 8.54466 6.32414 8.34852C6.4428 8.15237 6.51919 7.93362 6.54844 7.70625C6.95859 7.60547 7.26562 7.2375 7.26562 6.79688V6.09375C7.26562 4.80234 6.21328 3.75 4.92188 3.75C3.63047 3.75 2.57812 4.80234 2.57812 6.09375V6.79688C2.57812 7.2375 2.88516 7.60547 3.29531 7.70625C3.35391 8.175 3.61406 8.58516 3.98438 8.84531V9.45703L3.75 9.56016V10.8234C4.02187 10.9219 4.21875 11.1797 4.21875 11.4844V11.9531C4.21875 12.082 4.11328 12.1875 3.98438 12.1875C3.85547 12.1875 3.75 12.082 3.75 11.9531V11.4844C3.75 11.3555 3.64453 11.25 3.51562 11.25C3.38672 11.25 3.28125 11.3555 3.28125 11.4844V11.9531C3.28125 12.082 3.17578 12.1875 3.04688 12.1875C2.91797 12.1875 2.8125 12.082 2.8125 11.9531V11.4844C2.8125 11.1797 3.00937 10.9219 3.28125 10.8234V9.76875L2.57109 10.0852C2.14922 10.2727 1.875 10.6945 1.875 11.1562V12.6562H7.96875V11.1562C7.96875 10.6945 7.69453 10.2727 7.27266 10.0852ZM3.75 7.5V6.5625H4.6875C4.75078 6.5625 4.80937 6.53672 4.85391 6.49453L5.15625 6.18984L5.45859 6.49453C5.50313 6.53672 5.56172 6.5625 5.625 6.5625H6.09375V7.5C6.09375 8.14687 5.56875 8.67188 4.92188 8.67188C4.275 8.67188 3.75 8.14687 3.75 7.5ZM5.39062 9.48281L4.92188 9.79688L4.45312 9.48281V9.07266C4.60078 9.11484 4.75781 9.14062 4.92188 9.14062C5.08594 9.14062 5.24297 9.11484 5.39062 9.07266V9.48281Z" fill="#32A88D"/>
<path d="M9.84375 2.34375V1.64062C9.84375 0.735938 9.10781 0 8.20312 0H1.64062C0.735938 0 0 0.735938 0 1.64062V12.4219C0 13.3266 0.735938 14.0625 1.64062 14.0625H8.20312C9.10781 14.0625 9.84375 13.3266 9.84375 12.4219V7.96875H8.90625V12.1875C8.90625 12.7055 8.48672 13.125 7.96875 13.125H1.875C1.35703 13.125 0.9375 12.7055 0.9375 12.1875V1.875C0.9375 1.35703 1.35703 0.9375 1.875 0.9375H3.51562C3.57891 0.9375 3.6375 0.963281 3.68203 1.00547L4.08047 1.40625H5.76328L6.16172 1.00547C6.20625 0.963281 6.26484 0.9375 6.32812 0.9375H7.96875C8.48672 0.9375 8.90625 1.35703 8.90625 1.875V2.34375H9.84375Z" fill="#32A88D"/>
<path d="M13.3594 2.8125H8.67188C8.28516 2.8125 7.96875 3.12891 7.96875 3.51562V6.79688C7.96875 7.18359 8.28516 7.5 8.67188 7.5H10.1953L10.8281 8.34375C10.85 8.37286 10.8783 8.39648 10.9108 8.41276C10.9434 8.42903 10.9792 8.4375 11.0156 8.4375C11.052 8.4375 11.0879 8.42903 11.1204 8.41276C11.153 8.39648 11.1813 8.37286 11.2031 8.34375L11.8359 7.5H13.3594C13.7461 7.5 14.0625 7.18359 14.0625 6.79688V3.51562C14.0625 3.12891 13.7461 2.8125 13.3594 2.8125ZM12.4219 6.09375H9.60938C9.48047 6.09375 9.375 5.98828 9.375 5.85938C9.375 5.73047 9.48047 5.625 9.60938 5.625H12.4219C12.5508 5.625 12.6562 5.73047 12.6562 5.85938C12.6562 5.98828 12.5508 6.09375 12.4219 6.09375ZM12.4219 4.6875H9.60938C9.48047 4.6875 9.375 4.58203 9.375 4.45312C9.375 4.32422 9.48047 4.21875 9.60938 4.21875H12.4219C12.5508 4.21875 12.6562 4.32422 12.6562 4.45312C12.6562 4.58203 12.5508 4.6875 12.4219 4.6875Z" fill="#32A88D"/>
</svg>
