<svg width="12" height="15" viewBox="0 0 12 15" fill="none" xmlns="http://www.w3.org/2000/svg">
<path d="M9.81445 1.23047H8.56664C8.7859 1.54418 8.91982 1.92167 8.9342 2.3291H9.22852C9.83432 2.3291 10.3271 2.82193 10.3271 3.42773V12.8027C10.3271 13.4085 9.83432 13.9014 9.22852 13.9014H2.19727C1.59146 13.9014 1.09863 13.4085 1.09863 12.8027V3.42773C1.09863 2.82193 1.59146 2.3291 2.19727 2.3291H2.49161C2.506 1.92167 2.63991 1.54418 2.85917 1.23047H1.61133C0.722842 1.23047 0 1.95331 0 2.8418V13.3887C0 14.2772 0.722842 15 1.61133 15H9.81445C10.7029 15 11.4258 14.2772 11.4258 13.3887V2.8418C11.4258 1.95331 10.7029 1.23047 9.81445 1.23047Z" fill="#32A88D"/>
<path d="M3.80957 3.20801H7.61816C7.86086 3.20801 8.05762 3.01125 8.05762 2.76855V2.40234C8.05762 1.75515 7.53294 1.23047 6.88574 1.23047V0.732422C6.88574 0.32792 6.55782 0 6.15332 0H5.27441C4.86991 0 4.54199 0.32792 4.54199 0.732422V1.23047C3.89479 1.23047 3.37012 1.75515 3.37012 2.40234V2.76855C3.37012 3.01125 3.56687 3.20801 3.80957 3.20801ZM2.19824 3.20801C2.13997 3.20801 2.08408 3.23116 2.04287 3.27236C2.00167 3.31357 1.97852 3.36946 1.97852 3.42773V12.8027C1.97852 12.861 2.00167 12.9169 2.04287 12.9581C2.08408 12.9993 2.13997 13.0225 2.19824 13.0225H9.22949C9.28777 13.0225 9.34366 12.9993 9.38486 12.9581C9.42607 12.9169 9.44922 12.861 9.44922 12.8027V3.42773C9.44922 3.36946 9.42607 3.31357 9.38486 3.27236C9.34366 3.23116 9.28777 3.20801 9.22949 3.20801H8.86094C8.67953 3.7195 8.19106 4.08691 7.61816 4.08691H3.80957C3.23667 4.08691 2.7482 3.7195 2.5668 3.20801H2.19824ZM4.54199 5.91797H5.27441V5.18555C5.27441 4.94285 5.47117 4.74609 5.71387 4.74609C5.95656 4.74609 6.15332 4.94285 6.15332 5.18555V5.91797H6.88574C7.12844 5.91797 7.3252 6.11473 7.3252 6.35742C7.3252 6.60012 7.12844 6.79688 6.88574 6.79688H6.15332V7.5293C6.15332 7.77199 5.95656 7.96875 5.71387 7.96875C5.47117 7.96875 5.27441 7.77199 5.27441 7.5293V6.79688H4.54199C4.2993 6.79688 4.10254 6.60012 4.10254 6.35742C4.10254 6.11473 4.2993 5.91797 4.54199 5.91797ZM4.24902 8.84766H7.17871C7.42141 8.84766 7.61816 9.04441 7.61816 9.28711C7.61816 9.5298 7.42141 9.72656 7.17871 9.72656H4.24902C4.00633 9.72656 3.80957 9.5298 3.80957 9.28711C3.80957 9.04441 4.00633 8.84766 4.24902 8.84766ZM4.24902 10.6055H7.17871C7.42141 10.6055 7.61816 10.8022 7.61816 11.0449C7.61816 11.2876 7.42141 11.4844 7.17871 11.4844H4.24902C4.00633 11.4844 3.80957 11.2876 3.80957 11.0449C3.80957 10.8022 4.00633 10.6055 4.24902 10.6055Z" fill="#32A88D"/>
</svg>
