<svg width="13" height="14" viewBox="0 0 13 14" fill="none" xmlns="http://www.w3.org/2000/svg">
<path d="M2.92677 12.7333L3.17395 13.1209L1.87507 13.9492L0 11.0093L1.29831 10.181L2.92272 12.7269C2.92302 12.7275 2.92329 12.7284 2.92359 12.729C2.92474 12.7304 2.92559 12.7319 2.92677 12.7333ZM10.4717 9.75559L8.35524 11.1121C8.30022 11.3716 8.14707 11.6007 7.93335 11.7369C7.7936 11.826 7.63405 11.8712 7.4669 11.8712C7.36266 11.8712 7.25523 11.8537 7.14779 11.8182L5.62327 11.3142C5.51496 11.2784 5.45614 11.1613 5.49196 11.0527C5.50049 11.027 5.51401 11.0031 5.53175 10.9826C5.54949 10.962 5.5711 10.9452 5.59535 10.933C5.6196 10.9208 5.64602 10.9135 5.67309 10.9115C5.70016 10.9095 5.72736 10.9129 5.75313 10.9214L7.27765 11.4254C7.44157 11.4796 7.58715 11.4671 7.71118 11.3881C7.84454 11.3031 7.94005 11.1427 7.96012 10.97C7.961 10.9619 7.96245 10.9543 7.9645 10.9467C7.9715 10.7185 7.82417 10.5048 7.60577 10.4325L4.25942 9.32553C3.93362 9.21779 3.62061 9.25331 3.32855 9.43151L1.87507 10.3158L3.16608 12.3394L3.8838 11.9029C3.90941 11.8874 3.93809 11.8776 3.96785 11.8742C3.9976 11.8709 4.02774 11.874 4.05617 11.8834L6.81147 12.7942C7.18154 12.917 7.55073 12.8705 7.87888 12.6599L11.0363 10.6364C11.2788 10.4809 11.3498 10.1562 11.1947 9.91282C11.0389 9.67058 10.7145 9.59981 10.4717 9.75559ZM12.3354 6.31432C12.3354 6.59181 12.228 6.85182 12.0329 7.04659L10.4219 8.65848L8.81087 7.04659C8.40733 6.64305 8.40733 5.98587 8.81087 5.58146C9.00536 5.38696 9.26568 5.2798 9.54313 5.2798C9.82089 5.2798 10.0812 5.38696 10.2757 5.58173C10.3145 5.62047 10.3671 5.64223 10.4219 5.64223C10.4767 5.64223 10.5293 5.62047 10.568 5.58173C10.9722 5.17819 11.6296 5.17819 12.0332 5.58173C12.228 5.77655 12.3354 6.03684 12.3354 6.31432ZM11.2718 6.76591C11.2718 6.65147 11.1792 6.55889 11.0651 6.55889H10.6286V6.12273C10.6286 6.00859 10.536 5.91601 10.4219 5.91601C10.3078 5.91601 10.2152 6.00859 10.2152 6.12273V6.55889H9.7799C9.75271 6.55887 9.72578 6.56421 9.70066 6.57461C9.67553 6.58501 9.6527 6.60025 9.63348 6.61948C9.61425 6.63871 9.599 6.66154 9.5886 6.68666C9.57821 6.71179 9.57286 6.73871 9.57288 6.76591C9.57288 6.88004 9.66547 6.97263 9.7799 6.97263H10.2152V7.40791C10.2152 7.52204 10.3078 7.61463 10.4219 7.61463C10.536 7.61463 10.6286 7.52204 10.6286 7.40791V6.97263H11.0651C11.0922 6.97263 11.1191 6.96728 11.1442 6.95689C11.1693 6.9465 11.1921 6.93127 11.2113 6.91208C11.2305 6.89288 11.2457 6.87009 11.2561 6.84501C11.2665 6.81993 11.2718 6.79305 11.2718 6.76591ZM4.38927 8.93306L7.73563 10.0398C7.87472 10.0855 8.00113 10.1633 8.10469 10.2668C8.20826 10.3703 8.28609 10.4967 8.33194 10.6358L10.2152 9.42861V9.0367L8.51829 7.33892C7.95372 6.77436 7.95372 5.85487 8.51829 5.28943V5.28912C8.5356 5.27196 8.55326 5.25517 8.57128 5.23876C8.30925 5.14647 8.03176 5.09813 7.75283 5.09813H5.84396C4.48626 5.09813 3.3816 6.20252 3.3816 7.56021V8.94704C3.7033 8.8256 4.04657 8.8195 4.38927 8.93306ZM6.79837 4.68439C8.09668 4.68439 9.15272 3.62835 9.15272 2.33004C9.15272 1.03233 8.09668 -0.0234375 6.79837 -0.0234375C5.50066 -0.0234375 4.44489 1.03233 4.44489 2.33004C4.44489 3.62835 5.50066 4.68439 6.79837 4.68439Z" fill="#32A88D"/>
</svg>
