<svg width="14" height="14" viewBox="0 0 14 14" fill="none" xmlns="http://www.w3.org/2000/svg">
<path d="M1.52062 8.07867C1.55839 8.07873 1.59561 8.06966 1.62911 8.05223C1.66261 8.03481 1.69141 8.00954 1.71305 7.97859C1.95533 7.63352 2.27173 7.34699 2.63906 7.14C2.64322 7.13783 2.64729 7.13549 2.65125 7.13297L2.66438 7.12406L3.52477 6.51985C3.55048 6.50237 3.57246 6.47995 3.58943 6.4539C3.6064 6.42785 3.61801 6.39868 3.6236 6.3681C3.62918 6.33751 3.62863 6.30612 3.62196 6.27575C3.6153 6.24538 3.60266 6.21664 3.58478 6.19121C3.5669 6.16577 3.54414 6.14415 3.51782 6.12759C3.4915 6.11104 3.46215 6.09989 3.43148 6.09479C3.40081 6.08969 3.36944 6.09074 3.33918 6.09789C3.30892 6.10503 3.28038 6.11813 3.25523 6.13641L2.40188 6.7357C1.97637 6.97725 1.60987 7.31036 1.32891 7.71094C1.3043 7.74604 1.28979 7.78722 1.28696 7.83C1.28413 7.87278 1.29309 7.91551 1.31286 7.95355C1.33263 7.99159 1.36245 8.02348 1.39908 8.04575C1.43572 8.06801 1.47776 8.07981 1.52062 8.07984V8.07867ZM0.420469 9.65039C0.458172 9.65043 0.495329 9.64138 0.528787 9.624C0.562244 9.60662 0.591015 9.58142 0.612656 9.55055L1.12945 8.8125C1.14712 8.78729 1.15965 8.75885 1.16632 8.7288C1.173 8.69875 1.17369 8.66768 1.16836 8.63737C1.16303 8.60705 1.15178 8.57808 1.13525 8.55211C1.11872 8.52614 1.09724 8.50368 1.07203 8.48602C1.04682 8.46835 1.01838 8.45582 0.988333 8.44915C0.958284 8.44247 0.927213 8.44178 0.896897 8.44711C0.86658 8.45244 0.83761 8.46369 0.811641 8.48022C0.785673 8.49675 0.763214 8.51823 0.745547 8.54344L0.229922 9.28172C0.205315 9.31682 0.190807 9.35801 0.187977 9.40078C0.185148 9.44356 0.194105 9.48629 0.213874 9.52433C0.233643 9.56237 0.263466 9.59426 0.300099 9.61653C0.336732 9.6388 0.378771 9.65059 0.421641 9.65063L0.420469 9.65039ZM9.14062 6.09375C9.51147 6.09375 9.87398 5.98378 10.1823 5.77776C10.4907 5.57173 10.731 5.27889 10.8729 4.93628C11.0148 4.59367 11.0519 4.21667 10.9796 3.85296C10.9073 3.48924 10.7287 3.15515 10.4664 2.89293C10.2042 2.6307 9.87013 2.45213 9.50642 2.37978C9.1427 2.30743 8.76571 2.34456 8.42309 2.48648C8.08048 2.62839 7.78765 2.86871 7.58162 3.17706C7.37559 3.4854 7.26562 3.84791 7.26562 4.21875C7.26618 4.71586 7.46391 5.19245 7.81542 5.54396C8.16693 5.89547 8.64352 6.09319 9.14062 6.09375ZM8.03742 4.28742C8.08137 4.24348 8.14098 4.2188 8.20312 4.2188C8.26527 4.2188 8.32488 4.24348 8.36883 4.28742L8.89289 4.81149L10.1351 3.36305C10.1762 3.31851 10.233 3.29166 10.2936 3.28812C10.3541 3.28458 10.4136 3.30464 10.4597 3.34408C10.5057 3.38352 10.5347 3.43927 10.5405 3.49962C10.5463 3.55997 10.5285 3.62023 10.4909 3.66774L9.08461 5.30836C9.06361 5.33283 9.03778 5.35271 9.00874 5.36674C8.97971 5.38078 8.94809 5.38867 8.91586 5.38992H8.90625C8.8441 5.38991 8.78449 5.36521 8.74055 5.32125L8.03742 4.61813C7.9937 4.5742 7.96915 4.51475 7.96915 4.45277C7.96915 4.3908 7.9937 4.33135 8.03742 4.28742ZM8.0318 10.3688C8.11355 10.2874 8.16928 10.1837 8.1919 10.0706C8.21453 9.95752 8.20303 9.84028 8.15887 9.73377C8.11471 9.62726 8.03987 9.53628 7.94388 9.4724C7.84789 9.40851 7.73507 9.37461 7.61977 9.375H7.56516C7.42717 9.37505 7.29365 9.42396 7.18828 9.51305L5.03437 11.3355C4.94151 11.4141 4.82812 11.4645 4.70758 11.4807C4.58704 11.497 4.46436 11.4784 4.35401 11.4273C4.24365 11.3761 4.15023 11.2945 4.08474 11.192C4.01925 11.0895 3.98443 10.9704 3.98438 10.8488V9.10688C3.98459 9.00492 4.01141 8.90479 4.06217 8.81638C4.11294 8.72796 4.18589 8.65432 4.27383 8.60274L5.15625 8.0707V6.79688H4.92633C4.81921 6.79649 4.71458 6.82923 4.6268 6.89063L3.15797 7.92188C3.15004 7.92732 3.14183 7.93232 3.13336 7.93688C2.87361 8.07579 2.65011 8.27376 2.48086 8.51484L1.3807 10.088C1.18518 10.3678 0.888803 10.5611 0.553828 10.627L0 10.7391V13.5938H4.09313C4.41533 13.5939 4.72546 13.4712 4.96031 13.2506L7.99922 10.402C8.00893 10.3899 8.01984 10.3787 8.0318 10.3688Z" fill="#32A88D"/>
<path d="M4.45312 9.10687V10.8487C4.45319 10.881 4.46246 10.9125 4.47984 10.9397C4.49723 10.9668 4.522 10.9884 4.55125 11.002C4.5805 11.0155 4.61301 11.0204 4.64495 11.0161C4.67689 11.0118 4.70694 10.9985 4.73156 10.9777L5.15625 10.6184V8.61797L4.51313 9.00586C4.49512 9.01593 4.48009 9.03057 4.46955 9.0483C4.45902 9.06604 4.45335 9.08625 4.45312 9.10687ZM10.5982 0.46875L10.7154 0H7.56586L7.68305 0.46875H10.5982ZM10.7812 10.3125V9.375H8.49445C8.58715 9.51075 8.64563 9.66691 8.6649 9.83016C8.68416 9.99341 8.66364 10.1589 8.60508 10.3125H10.7812Z" fill="#32A88D"/>
<path d="M12.1562 12.8906C12.1562 12.9445 12.1348 12.9961 12.0967 13.0342C12.0586 13.0723 12.007 13.0938 11.9531 13.0938H6.54492L8.47852 11.2812H10.7812C11.0382 11.2812 11.2841 11.1787 11.4658 10.9971C11.6475 10.8154 11.75 10.5694 11.75 10.3125V9.375C11.75 9.15004 11.6717 8.93318 11.5303 8.76074L11.4658 8.69043L11.3955 8.62598C11.3389 8.57952 11.2769 8.54108 11.2119 8.50879C11.2557 8.41349 11.2812 8.31002 11.2812 8.20312C11.2812 8.13345 11.268 8.06575 11.249 8H11.4844C11.6791 8 11.8662 7.92288 12.0039 7.78516C12.0693 7.71977 12.1199 7.64267 12.1562 7.55957V12.8906ZM6.125 7.55957C6.16136 7.64267 6.21196 7.71977 6.27734 7.78516C6.41507 7.92288 6.60211 8 6.79688 8H7.03223C7.0132 8.06575 7 8.13345 7 8.20312C7 8.3032 7.02102 8.40092 7.05957 8.49121C6.92197 8.53864 6.79086 8.6049 6.6709 8.68945L6.5625 8.77344L6.125 9.14258V7.55957ZM11.9531 0.5C12.007 0.5 12.0586 0.521477 12.0967 0.55957C12.1348 0.597664 12.1562 0.649254 12.1562 0.703125V6.9707C12.1392 6.93176 12.1194 6.89395 12.0957 6.8584L12.0039 6.74609L11.8916 6.6543C11.7719 6.57456 11.6303 6.53125 11.4844 6.53125H10.7939C10.9205 6.44079 11.0404 6.34045 11.1514 6.22949C11.5491 5.83179 11.82 5.32507 11.9297 4.77344C12.0394 4.2219 11.9827 3.65041 11.7676 3.13086C11.5524 2.61132 11.1882 2.16696 10.7207 1.85449C10.4179 1.65219 10.0803 1.51195 9.72754 1.4375H10.7812C10.945 1.4375 11.1043 1.38295 11.2334 1.28223C11.3623 1.18159 11.4533 1.04045 11.4932 0.881836H11.4941L11.5889 0.5H11.9531ZM6.32812 0.5H6.69238L6.78711 0.881836H6.78809C6.8279 1.04045 6.91896 1.18159 7.04785 1.28223C7.14478 1.35787 7.25889 1.40768 7.37891 1.42773L7.5 1.4375H8.55566C8.01996 1.55057 7.52388 1.81596 7.13086 2.20898C6.59794 2.74191 6.29782 3.46412 6.29688 4.21777V4.21875C6.29688 4.78119 6.46389 5.33118 6.77637 5.79883C6.96799 6.08556 7.20963 6.33272 7.4873 6.53125H6.79688C6.60211 6.53125 6.41507 6.60837 6.27734 6.74609C6.21218 6.81126 6.16134 6.88792 6.125 6.9707V0.703125C6.125 0.649253 6.14648 0.597664 6.18457 0.55957C6.22266 0.521477 6.27425 0.5 6.32812 0.5Z" stroke="#32A88D"/>
</svg>
