<svg width="12" height="12" viewBox="0 0 12 12" fill="none" xmlns="http://www.w3.org/2000/svg">
<path d="M11.25 11.0625H10.875V7.125C10.875 7.07527 10.8552 7.02758 10.8201 6.99242C10.7849 6.95725 10.7372 6.9375 10.6875 6.9375H8.8125V5.25C8.8125 5.2103 8.7999 5.17163 8.77651 5.13955C8.75313 5.10748 8.72017 5.08365 8.68237 5.0715L3.43237 3.384C3.40425 3.37496 3.37439 3.37269 3.34523 3.37738C3.31607 3.38207 3.28842 3.39359 3.26455 3.41099C3.24068 3.42839 3.22126 3.45118 3.20787 3.47751C3.19448 3.50384 3.1875 3.53296 3.1875 3.5625V6.9375H1.3125C1.26277 6.9375 1.21508 6.95725 1.17992 6.99242C1.14475 7.02758 1.125 7.07527 1.125 7.125V11.0625H0.75C0.700272 11.0625 0.652581 11.0823 0.617417 11.1174C0.582254 11.1526 0.5625 11.2003 0.5625 11.25C0.5625 11.2997 0.582254 11.3474 0.617417 11.3826C0.652581 11.4177 0.700272 11.4375 0.75 11.4375H11.25C11.2997 11.4375 11.3474 11.4177 11.3826 11.3826C11.4177 11.3474 11.4375 11.2997 11.4375 11.25C11.4375 11.2003 11.4177 11.1526 11.3826 11.1174C11.3474 11.0823 11.2997 11.0625 11.25 11.0625ZM3.1875 11.0625H1.5V7.3125H3.1875V11.0625ZM5.8125 11.0625H4.875V9.1875H5.8125V11.0625ZM6 6.75C5.95027 6.75 5.90258 6.73025 5.86742 6.69508C5.83225 6.65992 5.8125 6.61223 5.8125 6.5625V6.1875H5.4375C5.38777 6.1875 5.34008 6.16775 5.30492 6.13258C5.26975 6.09742 5.25 6.04973 5.25 6C5.25 5.95027 5.26975 5.90258 5.30492 5.86742C5.34008 5.83225 5.38777 5.8125 5.4375 5.8125H5.8125V5.4375C5.8125 5.38777 5.83225 5.34008 5.86742 5.30492C5.90258 5.26975 5.95027 5.25 6 5.25C6.04973 5.25 6.09742 5.26975 6.13258 5.30492C6.16775 5.34008 6.1875 5.38777 6.1875 5.4375V5.8125H6.5625C6.61223 5.8125 6.65992 5.83225 6.69508 5.86742C6.73025 5.90258 6.75 5.95027 6.75 6C6.75 6.04973 6.73025 6.09742 6.69508 6.13258C6.65992 6.16775 6.61223 6.1875 6.5625 6.1875H6.1875V6.5625C6.1875 6.61223 6.16775 6.65992 6.13258 6.69508C6.09742 6.73025 6.04973 6.75 6 6.75ZM7.125 11.0625H6.1875V9.1875H7.125V11.0625ZM10.5 11.0625H8.8125V7.3125H10.5V11.0625ZM6 3.9375C6.06458 3.93775 6.12829 3.92265 6.18589 3.89346C6.2435 3.86427 6.29335 3.82182 6.33134 3.76959C6.78816 3.14946 7.3125 2.37523 7.3125 1.88838C7.3125 1.1573 6.7237 0.5625 6 0.5625C5.2763 0.5625 4.6875 1.1573 4.6875 1.88838C4.6875 2.14411 4.79902 2.58905 5.66866 3.76959C5.70665 3.82182 5.7565 3.86427 5.81411 3.89346C5.87171 3.92265 5.93542 3.93775 6 3.9375ZM5.4375 1.875C5.4375 1.76375 5.47049 1.65499 5.5323 1.56249C5.59411 1.46999 5.68196 1.39789 5.78474 1.35532C5.88752 1.31274 6.00062 1.3016 6.10974 1.32331C6.21885 1.34501 6.31908 1.39859 6.39775 1.47725C6.47641 1.55592 6.52999 1.65615 6.55169 1.76526C6.5734 1.87438 6.56226 1.98748 6.51968 2.09026C6.47711 2.19304 6.40501 2.28089 6.31251 2.3427C6.22001 2.40451 6.11125 2.4375 6 2.4375C5.85087 2.43733 5.70789 2.37802 5.60244 2.27256C5.49698 2.16711 5.43767 2.02413 5.4375 1.875Z" fill="#32A88D"/>
<path d="M9.91071 7.6875H9.375C9.27145 7.6875 9.1875 7.77145 9.1875 7.875V8.625C9.1875 8.72855 9.27145 8.8125 9.375 8.8125H9.91071C10.0143 8.8125 10.0982 8.72855 10.0982 8.625V7.875C10.0982 7.77145 10.0143 7.6875 9.91071 7.6875Z" fill="#32A88D"/>
<path d="M9.91071 9.1875H9.375C9.27145 9.1875 9.1875 9.27145 9.1875 9.375V10.125C9.1875 10.2286 9.27145 10.3125 9.375 10.3125H9.91071C10.0143 10.3125 10.0982 10.2286 10.0982 10.125V9.375C10.0982 9.27145 10.0143 9.1875 9.91071 9.1875Z" fill="#32A88D"/>
<path d="M2.59821 7.6875H2.0625C1.95895 7.6875 1.875 7.77145 1.875 7.875V8.625C1.875 8.72855 1.95895 8.8125 2.0625 8.8125H2.59821C2.70176 8.8125 2.78571 8.72855 2.78571 8.625V7.875C2.78571 7.77145 2.70176 7.6875 2.59821 7.6875Z" fill="#32A88D"/>
<path d="M2.59821 9.1875H2.0625C1.95895 9.1875 1.875 9.27145 1.875 9.375V10.125C1.875 10.2286 1.95895 10.3125 2.0625 10.3125H2.59821C2.70176 10.3125 2.78571 10.2286 2.78571 10.125V9.375C2.78571 9.27145 2.70176 9.1875 2.59821 9.1875Z" fill="#32A88D"/>
</svg>
