<svg width="15" height="15" viewBox="0 0 15 15" fill="none" xmlns="http://www.w3.org/2000/svg">
<path fill-rule="evenodd" clip-rule="evenodd" d="M14.3322 12.0126H0.659051C0.29877 12.0126 0 11.7138 0 11.3447V1.99499C0 1.63471 0.29877 1.33594 0.659051 1.33594H14.3322C14.7012 1.33594 15 1.63471 15 1.99499V11.3447C15 11.7138 14.7012 12.0126 14.3322 12.0126ZM7.88225 11.0284H7.10896C7.02988 11.0284 6.96837 10.9581 6.96837 10.879C6.96837 10.7999 7.02988 10.7384 7.10896 10.7384H7.88225C7.97012 10.7384 8.03163 10.7999 8.03163 10.879C8.03163 10.9581 7.97012 11.0284 7.88225 11.0284ZM14.1213 10.3128H7.5H0.878735L0.878735 2.58374C0.878735 2.38163 1.04569 2.21467 1.2478 2.21467H13.7522C13.9543 2.21467 14.1213 2.38163 14.1213 2.58374V10.3128ZM6.33568 13.5152C6.25659 13.5152 6.18629 13.4537 6.18629 13.3746V12.3025H8.81371V13.3746C8.81371 13.4537 8.74341 13.5152 8.66432 13.5152H6.33568Z" fill="#32A88D"/>
<path fill-rule="evenodd" clip-rule="evenodd" d="M10.4138 13.6649H4.57904C4.42087 13.6649 4.28906 13.5331 4.28906 13.3749C4.28906 13.208 4.42087 13.0762 4.57904 13.0762H10.4138C10.5808 13.0762 10.7126 13.208 10.7126 13.3749C10.7126 13.5331 10.5808 13.6649 10.4138 13.6649Z" fill="#32A88D"/>
<g clip-path="url(#clip0_4688_411)">
<path d="M7.50098 4.2207C7.83806 4.2207 8.11133 3.94744 8.11133 3.61035C8.11133 3.27326 7.83806 3 7.50098 3C7.16389 3 6.89062 3.27326 6.89062 3.61035C6.89062 3.94744 7.16389 4.2207 7.50098 4.2207Z" fill="#32A88D"/>
<path d="M6.64551 6.13706H7.31689C7.51915 6.13706 7.68311 5.97311 7.68311 5.77085C7.68311 5.56859 7.51915 5.40464 7.31689 5.40464H6.88965C6.78853 5.40464 6.70654 5.32266 6.70654 5.22153V4.95298C6.70654 4.85186 6.78853 4.76987 6.88965 4.76987C6.99077 4.76987 7.07275 4.85186 7.07275 4.95298V5.03843H7.31689C7.65754 5.03843 7.94463 5.2722 8.02614 5.58774H8.11035C8.11035 5.19343 8.42362 4.87107 8.81432 4.85604C8.73824 4.56837 8.51594 4.34023 8.23176 4.25586C8.0527 4.45858 7.79111 4.58677 7.5 4.58677C7.20892 4.58677 6.94736 4.45861 6.7683 4.25594C6.415 4.36078 6.15723 4.68773 6.15723 5.07505V5.64878C6.15723 5.91844 6.37584 6.13706 6.64551 6.13706ZM8.47656 5.58774H9.20898C9.20898 5.38549 9.04503 5.22153 8.84277 5.22153C8.64052 5.22153 8.47656 5.38549 8.47656 5.58774ZM10.0757 8.51743H4.92432C4.62094 8.51743 4.375 8.76337 4.375 9.06675C4.375 9.16787 4.45698 9.24985 4.55811 9.24985H10.4419C10.543 9.24985 10.625 9.16787 10.625 9.06675C10.625 8.76337 10.3791 8.51743 10.0757 8.51743Z" fill="#32A88D"/>
<path d="M5.10791 8.15137C5.41129 8.15137 5.65723 7.90543 5.65723 7.60205C5.65723 7.29867 5.41129 7.05273 5.10791 7.05273C4.80453 7.05273 4.55859 7.29867 4.55859 7.60205C4.55859 7.90543 4.80453 8.15137 5.10791 8.15137Z" fill="#32A88D"/>
<path d="M6.64453 6.50391H7.01074V6.68701H6.64453V6.50391ZM8.56128 8.15186H10.0747C10.277 8.15186 10.4409 7.9879 10.4409 7.78564C10.4409 7.58339 10.277 7.41943 10.0747 7.41943H8.8418C8.8418 7.70057 8.7356 7.95734 8.56128 8.15186Z" fill="#32A88D"/>
<path d="M6.20594 8.15137H7.74403C8.14854 8.15137 8.47645 7.82345 8.47645 7.41895V6.68652H9.57509C9.77734 6.68652 9.9413 6.52257 9.9413 6.32031C9.9413 6.11805 9.77734 5.9541 9.57509 5.9541H8.02603C7.94944 6.25059 7.6913 6.47467 7.37782 6.50067V7.05273H6.20594C6.09713 7.05257 5.99074 7.08489 5.90039 7.14554C5.97811 7.28003 6.02284 7.43586 6.02284 7.60205C6.02284 7.76824 5.97811 7.92407 5.90039 8.05856C5.99074 8.11921 6.09713 8.15153 6.20594 8.15137Z" fill="#32A88D"/>
</g>
<path d="M2.5 2.5C1.94772 2.5 1.5 2.94772 1.5 3.5C1.5 4.05228 1.94772 4.5 2.5 4.5C3.05228 4.5 3.5 4.05228 3.5 3.5C3.49941 2.94796 3.05204 2.50059 2.5 2.5ZM2.92114 3.53186C2.91422 3.54575 2.90296 3.55701 2.88907 3.56393V3.56429L2.31764 3.85C2.28235 3.86763 2.23945 3.85333 2.22182 3.81803C2.2168 3.808 2.21422 3.79693 2.21428 3.78572V3.21429C2.21427 3.17484 2.24623 3.14285 2.28568 3.14282C2.29678 3.14282 2.30772 3.1454 2.31764 3.15036L2.88907 3.43607C2.92438 3.45367 2.93874 3.49656 2.92114 3.53186Z" fill="#32A88D"/>
<defs>
<clipPath id="clip0_4688_411">
<rect width="6.25" height="6.25" fill="white" transform="translate(4.375 3)"/>
</clipPath>
</defs>
</svg>
